<svg height="512pt" viewBox="0 0 512 512" width="512pt" xmlns="http://www.w3.org/2000/svg" xmlns:xlink="http://www.w3.org/1999/xlink"><linearGradient id="a" gradientUnits="userSpaceOnUse" x1="74.9807" x2="437.0193" y1="74.9807" y2="437.0193"><stop offset="0" stop-color="#ff9f00"/><stop offset="1" stop-color="#f77e00"/></linearGradient><linearGradient id="b"><stop offset="0" stop-color="#4ad2f5"/><stop offset="1" stop-color="#00abe9"/></linearGradient><linearGradient id="c" gradientUnits="userSpaceOnUse" x1="201.7007" x2="324.0619" xlink:href="#b" y1="81.5285" y2="203.8897"/><linearGradient id="d" gradientUnits="userSpaceOnUse" x1="176.6472" x2="274.2788" xlink:href="#b" y1="216.8999" y2="314.5315"/><linearGradient id="e" gradientUnits="userSpaceOnUse" x1="158.8704" x2="353.1296" y1="298.2601" y2="492.5193"><stop offset="0" stop-color="#0065a3"/><stop offset="1" stop-color="#005285"/></linearGradient><path d="m512 256c0 141.386719-114.613281 256-256 256s-256-114.613281-256-256 114.613281-256 256-256 256 114.613281 256 256zm0 0" fill="url(#a)"/><path d="m325.246094 202.707031-69.246094-14.621093-19.355469-4.089844-21.074219-116.339844 40.429688 14.625 21.933594 7.957031zm0 0" fill="url(#c)"/><path d="m416.640625 287.003906c-.214844 8.386719-4.515625 16.34375-11.398437 21.078125-7.097657 4.730469-15.914063 5.804688-23.871094 3.007813l-125.371094-45.589844-129.027344-47.09375-4.300781-138.921875 39.351563 14.410156 25.59375 55.050781 68.382812 24.945313 111.179688 40.429687c30.539062 10.964844 50.320312 40.425782 49.460937 72.683594zm0 0" fill="#deecf1"/><path d="m256 219.695312-31.609375-11.613281-112.472656 73.546875 64.085937 23.226563 79.996094-27.097657 83.007812-27.957031zm0 0" fill="url(#d)"/><path d="m72.492188 384.636719h367.015624v21.503906h-367.015624zm0 0" fill="url(#e)"/></svg>